<?xml version="1.0" encoding="utf-8"?>
<!-- Generator: Adobe Illustrator 16.0.0, SVG Export Plug-In . SVG Version: 6.00 Build 0)  -->
<!DOCTYPE svg PUBLIC "-//W3C//DTD SVG 1.1//EN" "http://www.w3.org/Graphics/SVG/1.1/DTD/svg11.dtd">
<svg version="1.1" id="Calque_1" xmlns="http://www.w3.org/2000/svg" xmlns:xlink="http://www.w3.org/1999/xlink" x="0px" y="0px"
	 width="841.889px" height="885.088px" viewBox="0 0 841.889 885.088" enable-background="new 0 0 841.889 885.088"
	 xml:space="preserve">
<g>
	<path d="M258.113,570.795c-36.796-31.418-55.191-69.599-55.191-114.534c0-50.955,20.185-94.425,60.564-130.408
		c40.05-35.814,88.483-53.727,145.304-53.727c44.118,0,81.567,12.406,112.337,37.21c32.235,26.292,48.354,59.889,48.354,100.794
		c0,32.862-10.342,63.09-31.016,90.69c-20.677,27.604-44.201,41.401-70.576,41.401c-17.424,0-30.282-5.498-38.585-16.498
		c-5.537-7.335-8.388-15.335-8.548-24.004c-3.747,10.166-11.074,19.5-21.979,27.998c-10.91,8.5-22.552,12.748-34.922,12.748
		c-18.4,0-33.908-6.479-46.522-19.44c-12.619-12.963-18.926-30.302-18.926-52.021c0-28.451,10.703-54.584,32.114-78.406
		c21.406-23.819,44.813-35.731,70.21-35.731c11.558,0,21.406,3.022,29.549,9.067c8.139,6.043,13.433,13.449,15.874,22.226
		l8.059-25.188h40.051l-13.432,43.149c-5.537,17.77-10.421,34.269-14.653,49.498c-6.838,24.707-10.256,40.192-10.256,46.451
		c0,3.384,1.137,7.192,3.418,11.421c3.907,7.107,9.929,10.66,18.072,10.66c15.789,0,32.071-11.268,48.842-33.812
		c16.767-22.539,25.153-50.017,25.153-82.435c0-39.677-14.614-70.07-43.835-91.175c-29.226-21.104-61.34-31.66-96.341-31.66
		c-43.798,0-83.116,15.572-117.953,46.718c-37.773,33.669-56.657,74.826-56.657,123.478c0,45.285,15.789,81.818,47.377,109.593
		c29.954,26.265,67.562,39.395,112.825,39.395c15.465,0,32.395-2.278,50.796-6.838c28.163-6.838,52.34-17.906,72.529-33.213
		l9.28,13.92c-24.421,15.63-47.461,26.052-69.111,31.259c-21.654,5.209-45.179,7.815-70.577,7.815
		C338.458,617.196,294.58,601.731,258.113,570.795z M349.081,514.962c5.452,6.454,12.737,9.677,21.857,9.677
		c19.373,0,34.959-16.335,46.767-49.012c11.802-32.679,17.705-56.571,17.705-71.681c0-8.826-2.362-15.786-7.082-20.88
		c-4.725-5.089-11.318-7.639-19.781-7.639c-16.447,0-31.832,13.073-46.156,39.215c-14.329,26.142-21.491,50.841-21.491,74.095
		C340.9,499.772,343.624,508.514,349.081,514.962z"/>
</g>
</svg>
