<?xml version="1.0" encoding="utf-8"?>
<!-- Generator: Adobe Illustrator 16.0.0, SVG Export Plug-In . SVG Version: 6.00 Build 0)  -->
<!DOCTYPE svg PUBLIC "-//W3C//DTD SVG 1.1//EN" "http://www.w3.org/Graphics/SVG/1.1/DTD/svg11.dtd">
<svg version="1.1" id="Calque_1" xmlns="http://www.w3.org/2000/svg" xmlns:xlink="http://www.w3.org/1999/xlink" x="0px" y="0px"
	 width="841.889px" height="885.088px" viewBox="0 0 841.889 885.088" enable-background="new 0 0 841.889 885.088"
	 xml:space="preserve">
<ellipse cx="350.984" cy="567.933" rx="66.942" ry="58.693"/>
<g>
	<path d="M407.965,244.518c0,0,0.557,0.726,1.6,2.086c1.039,1.345,2.604,3.453,4.442,5.631c1.798,2.261,4.274,5.091,7.126,8.306
		c1.466,1.591,3.026,3.284,4.671,5.069c1.696,1.764,3.443,3.635,5.337,5.562c3.775,3.862,7.928,8.018,12.404,12.432
		c4.46,4.413,9.216,9.084,14.089,14.032c4.883,4.92,9.86,10.171,14.754,15.688c4.911,5.494,9.657,11.388,14.031,17.575
		c2.229,3.058,4.228,6.312,6.228,9.519c0.927,1.658,1.851,3.312,2.771,4.962c0.478,0.811,0.88,1.67,1.289,2.522l1.226,2.545
		c0.397,0.852,0.833,1.678,1.193,2.543c0.351,0.87,0.699,1.738,1.048,2.604c0.678,1.738,1.44,3.421,1.951,5.203
		c0.556,1.761,1.139,3.495,1.65,5.234c0.419,1.768,0.835,3.523,1.247,5.264l0.305,1.298l0.206,1.316
		c0.134,0.875,0.267,1.745,0.399,2.611c0.132,0.864,0.262,1.724,0.392,2.58c0.153,0.851,0.146,1.721,0.227,2.571
		c0.115,1.703,0.23,3.388,0.344,5.053c0.009,1.667-0.039,3.312-0.058,4.93c-0.013,0.808-0.025,1.61-0.038,2.407
		c-0.027,0.795-0.141,1.581-0.206,2.362c-0.153,1.557-0.305,3.09-0.453,4.598c-0.041,0.376-0.066,0.751-0.12,1.122l-0.198,1.102
		c-0.132,0.73-0.262,1.454-0.392,2.171c-0.259,1.429-0.513,2.832-0.761,4.206c-0.658,2.71-1.365,5.284-1.996,7.731
		c-0.716,2.425-1.559,4.674-2.261,6.806c-0.667,2.146-1.53,4.066-2.272,5.858c-0.746,1.787-1.431,3.428-2.05,4.911
		c-2.829,5.754-4.445,9.042-4.445,9.042s1.293-3.417,3.555-9.396c0.472-1.523,0.994-3.21,1.562-5.047
		c0.562-1.834,1.229-3.797,1.682-5.968c0.488-2.158,1.103-4.427,1.573-6.852c0.384-2.444,0.831-4.999,1.217-7.667
		c0.112-1.343,0.227-2.714,0.343-4.111c0.059-0.697,0.118-1.399,0.178-2.109l0.09-1.067c0.017-0.358,0.006-0.719,0.011-1.081
		c0.004-1.443,0.008-2.911,0.013-4.401c-0.009-0.744,0.03-1.492-0.018-2.244c-0.061-0.751-0.121-1.507-0.183-2.269
		c-0.13-1.521-0.229-3.061-0.384-4.611c-0.254-1.537-0.512-3.092-0.771-4.665c-0.149-0.781-0.213-1.579-0.434-2.354
		c-0.196-0.778-0.395-1.561-0.593-2.346c-0.197-0.784-0.396-1.571-0.595-2.362l-0.3-1.187l-0.398-1.167
		c-0.527-1.554-1.06-3.121-1.596-4.699c-0.624-1.547-1.313-3.082-1.967-4.633c-0.608-1.568-1.469-3.05-2.234-4.571
		c-0.39-0.756-0.781-1.515-1.174-2.274c-0.401-0.755-0.881-1.478-1.317-2.22l-1.339-2.214c-0.444-0.739-0.88-1.484-1.396-2.19
		c-0.987-1.429-1.978-2.862-2.97-4.298c-2.137-2.782-4.238-5.584-6.588-8.229c-4.604-5.345-9.551-10.427-14.72-15.201
		c-5.146-4.792-10.382-9.359-15.6-13.699c-5.191-4.354-10.315-8.508-15.197-12.495c-4.879-3.97-9.518-7.801-13.776-11.399
		c-2.133-1.792-4.156-3.58-6.093-5.246c-1.917-1.719-3.736-3.35-5.445-4.882c-3.381-3.147-6.304-5.902-8.749-8.428
		c-2.524-2.501-4.128-4.295-5.313-5.558c-1.168-1.255-1.791-1.925-1.791-1.925L407.965,244.518z"/>
</g>
<line fill="none" stroke="#000000" stroke-width="19.8261" stroke-miterlimit="10" x1="407.036" y1="562.128" x2="397.579" y2="244.144"/>
</svg>
