<?xml version="1.0" encoding="utf-8"?>
<!-- Generator: Adobe Illustrator 16.0.0, SVG Export Plug-In . SVG Version: 6.00 Build 0)  -->
<!DOCTYPE svg PUBLIC "-//W3C//DTD SVG 1.1//EN" "http://www.w3.org/Graphics/SVG/1.1/DTD/svg11.dtd">
<svg version="1.1" id="Calque_1" xmlns="http://www.w3.org/2000/svg" xmlns:xlink="http://www.w3.org/1999/xlink" x="0px" y="0px"
	 width="841.889px" height="885.088px" viewBox="0 0 841.889 885.088" enable-background="new 0 0 841.889 885.088"
	 xml:space="preserve">
<g>
	<polygon stroke="#1D1D1B" stroke-miterlimit="10" points="481.472,234.659 464.73,243.378 444.919,252.755 447.601,228.777 
		450.221,205.358 450.034,205.183 325.113,205.183 325.113,421.133 481.72,421.133 481.72,234.894 	"/>
	<polygon fill="#FFFFFF" stroke="#1D1D1B" stroke-miterlimit="10" points="444.919,253.437 465.001,243.766 481.972,234.776 
		481.995,234.763 450.357,203.979 450.293,204.558 447.638,228.709 	"/>
</g>
<g>
	<polygon stroke="#1D1D1B" stroke-miterlimit="10" points="700.472,247.659 683.73,256.378 663.919,265.755 666.601,241.777 
		669.221,218.358 669.034,218.183 544.113,218.183 544.113,434.133 700.72,434.133 700.72,247.894 	"/>
	<polygon fill="#FFFFFF" stroke="#1D1D1B" stroke-miterlimit="10" points="663.919,266.437 684.001,256.766 700.972,247.776 
		700.995,247.763 669.357,216.979 669.293,217.558 666.638,241.709 	"/>
</g>
<g>
	<polygon stroke="#1D1D1B" stroke-miterlimit="10" points="272.472,247.659 255.73,256.378 235.919,265.755 238.601,241.777 
		241.221,218.358 241.035,218.183 116.113,218.183 116.113,434.133 272.72,434.133 272.72,247.894 	"/>
	<polygon fill="#FFFFFF" stroke="#1D1D1B" stroke-miterlimit="10" points="235.919,266.437 256.001,256.766 272.971,247.776 
		272.995,247.763 241.357,216.979 241.293,217.558 238.637,241.709 	"/>
</g>
<g>
	<polygon stroke="#FFFFFF" stroke-miterlimit="10" points="184.59,368.824 221.493,402.777 258.397,436.731 210.54,451.712 
		162.684,466.697 173.637,417.76 	"/>
</g>
<g>
	<polygon stroke="#FFFFFF" stroke-miterlimit="10" points="639.501,420.427 650.454,469.364 602.598,454.379 554.741,439.398 
		591.645,405.444 628.548,371.491 	"/>
</g>
<g>
	<rect x="385.159" y="433.925" width="41.007" height="198.099"/>
	<polygon stroke="#FFFFFF" stroke-width="0.9876" stroke-miterlimit="10" points="406.757,437.325 368.322,437.325 387.54,398.685 
		406.757,360.044 425.975,398.685 445.193,437.325 	"/>
</g>
<path fill="none" stroke="#000000" stroke-width="41" stroke-miterlimit="10" d="M601.029,438.643
	c0,107.69-87.301,194.99-194.991,194.99c-107.69,0-194.991-87.3-194.991-194.99"/>
</svg>
