<?xml version="1.0" encoding="utf-8"?>
<!-- Generator: Adobe Illustrator 16.0.0, SVG Export Plug-In . SVG Version: 6.00 Build 0)  -->
<!DOCTYPE svg PUBLIC "-//W3C//DTD SVG 1.1//EN" "http://www.w3.org/Graphics/SVG/1.1/DTD/svg11.dtd">
<svg version="1.1" id="Calque_1" xmlns="http://www.w3.org/2000/svg" xmlns:xlink="http://www.w3.org/1999/xlink" x="0px" y="0px"
	 width="841.889px" height="885.088px" viewBox="0 0 841.889 885.088" enable-background="new 0 0 841.889 885.088"
	 xml:space="preserve">
<polygon points="569.808,383.912 396.957,556.764 223.937,383.744 194.24,413.442 367.26,586.461 367.233,586.489 396.93,616.186 
	599.505,413.609 "/>
<path d="M338.288,395.46c-42.567-62.074-136.914-48.756-136.914-48.756l11.716-32.899c0,0,70.512-11.494,136.914,48.753
	C351.884,364.264,339.166,396.74,338.288,395.46z"/>
<polygon points="185.656,318.198 211.445,298.037 216.01,330.45 220.575,362.865 190.22,350.612 159.867,338.358 "/>
<path d="M407.417,362.726c66.4-60.247,136.914-48.753,136.914-48.753l11.717,32.899c0,0-94.348-13.319-136.915,48.754
	C418.255,396.906,405.535,364.432,407.417,362.726z"/>
<polygon points="597.553,338.526 567.199,350.78 536.846,363.033 541.41,330.619 545.975,298.205 571.764,318.365 "/>
</svg>
