<?xml version="1.0" encoding="utf-8"?>
<!-- Generator: Adobe Illustrator 16.0.0, SVG Export Plug-In . SVG Version: 6.00 Build 0)  -->
<!DOCTYPE svg PUBLIC "-//W3C//DTD SVG 1.1//EN" "http://www.w3.org/Graphics/SVG/1.1/DTD/svg11.dtd">
<svg version="1.1" id="Calque_1" xmlns="http://www.w3.org/2000/svg" xmlns:xlink="http://www.w3.org/1999/xlink" x="0px" y="0px"
	 width="841.889px" height="885.088px" viewBox="0 0 841.889 885.088" enable-background="new 0 0 841.889 885.088"
	 xml:space="preserve">
<g>
	<path d="M339.718,307.251h214.484l2.038,64.457h-9.076c-4.445-20.25-10.095-33.432-16.947-39.544
		c-6.854-6.112-21.272-9.168-43.249-9.168h-21.115v194.11c0,14.615,2.283,23.674,6.853,27.172
		c4.567,3.502,14.569,5.804,30.007,6.909v7.038H392.135v-7.038c16.05-1.228,26.051-3.87,30.005-7.928
		c3.95-4.054,5.927-14.252,5.927-30.599V322.994h-21.3c-20.994,0-35.285,3.028-42.878,9.076
		c-7.594,6.052-13.308,19.263-17.133,39.637h-9.261L339.718,307.251z"/>
</g>
</svg>
