<?xml version="1.0" encoding="utf-8"?>
<!-- Generator: Adobe Illustrator 16.0.0, SVG Export Plug-In . SVG Version: 6.00 Build 0)  -->
<!DOCTYPE svg PUBLIC "-//W3C//DTD SVG 1.1//EN" "http://www.w3.org/Graphics/SVG/1.1/DTD/svg11.dtd">
<svg version="1.1" id="Calque_1" xmlns="http://www.w3.org/2000/svg" xmlns:xlink="http://www.w3.org/1999/xlink" x="0px" y="0px"
	 width="841.889px" height="885.088px" viewBox="0 0 841.889 885.088" enable-background="new 0 0 841.889 885.088"
	 xml:space="preserve">
<rect x="234.445" y="315.044" width="428" height="291.5"/>
<rect x="260.445" y="355.044" fill="#FFFFFF" width="375.412" height="215.5"/>
<path fill="#FFFFFF" d="M306.445,335.544c0,4.694-3.806,8.5-8.5,8.5h-24c-4.694,0-8.5-3.806-8.5-8.5l0,0c0-4.694,3.806-8.5,8.5-8.5
	h24C302.639,327.044,306.445,330.85,306.445,335.544L306.445,335.544z"/>
<path fill="#FFFFFF" d="M364.445,335.544c0,4.694-3.806,8.5-8.5,8.5h-24c-4.694,0-8.5-3.806-8.5-8.5l0,0c0-4.694,3.806-8.5,8.5-8.5
	h24C360.639,327.044,364.445,330.85,364.445,335.544L364.445,335.544z"/>
<path fill="#FFFFFF" d="M417.445,335.544c0,4.694-3.806,8.5-8.5,8.5h-24c-4.694,0-8.5-3.806-8.5-8.5l0,0c0-4.694,3.806-8.5,8.5-8.5
	h24C413.639,327.044,417.445,330.85,417.445,335.544L417.445,335.544z"/>
<path fill="#FFFFFF" d="M470.445,335.544c0,4.694-3.806,8.5-8.5,8.5h-24c-4.694,0-8.5-3.806-8.5-8.5l0,0c0-4.694,3.806-8.5,8.5-8.5
	h24C466.639,327.044,470.445,330.85,470.445,335.544L470.445,335.544z"/>
<path fill="#FFFFFF" d="M523.445,335.544c0,4.694-3.806,8.5-8.5,8.5h-24c-4.694,0-8.5-3.806-8.5-8.5l0,0c0-4.694,3.806-8.5,8.5-8.5
	h24C519.639,327.044,523.445,330.85,523.445,335.544L523.445,335.544z"/>
<path fill="#FFFFFF" d="M576.445,335.544c0,4.694-3.806,8.5-8.5,8.5h-24c-4.694,0-8.5-3.806-8.5-8.5l0,0c0-4.694,3.806-8.5,8.5-8.5
	h24C572.639,327.044,576.445,330.85,576.445,335.544L576.445,335.544z"/>
<path fill="#FFFFFF" d="M629.445,335.544c0,4.694-3.806,8.5-8.5,8.5h-24c-4.694,0-8.5-3.806-8.5-8.5l0,0c0-4.694,3.806-8.5,8.5-8.5
	h24C625.639,327.044,629.445,330.85,629.445,335.544L629.445,335.544z"/>
<path fill="#FFFFFF" d="M307.445,588.544c0,4.694-3.806,8.5-8.5,8.5h-24c-4.694,0-8.5-3.806-8.5-8.5l0,0c0-4.694,3.806-8.5,8.5-8.5
	h24C303.639,580.044,307.445,583.85,307.445,588.544L307.445,588.544z"/>
<path fill="#FFFFFF" d="M365.445,588.544c0,4.694-3.806,8.5-8.5,8.5h-24c-4.694,0-8.5-3.806-8.5-8.5l0,0c0-4.694,3.806-8.5,8.5-8.5
	h24C361.639,580.044,365.445,583.85,365.445,588.544L365.445,588.544z"/>
<path fill="#FFFFFF" d="M418.445,588.544c0,4.694-3.806,8.5-8.5,8.5h-24c-4.694,0-8.5-3.806-8.5-8.5l0,0c0-4.694,3.806-8.5,8.5-8.5
	h24C414.639,580.044,418.445,583.85,418.445,588.544L418.445,588.544z"/>
<path fill="#FFFFFF" d="M471.445,588.544c0,4.694-3.806,8.5-8.5,8.5h-24c-4.694,0-8.5-3.806-8.5-8.5l0,0c0-4.694,3.806-8.5,8.5-8.5
	h24C467.639,580.044,471.445,583.85,471.445,588.544L471.445,588.544z"/>
<path fill="#FFFFFF" d="M524.445,588.544c0,4.694-3.806,8.5-8.5,8.5h-24c-4.694,0-8.5-3.806-8.5-8.5l0,0c0-4.694,3.806-8.5,8.5-8.5
	h24C520.639,580.044,524.445,583.85,524.445,588.544L524.445,588.544z"/>
<path fill="#FFFFFF" d="M577.445,588.544c0,4.694-3.806,8.5-8.5,8.5h-24c-4.694,0-8.5-3.806-8.5-8.5l0,0c0-4.694,3.806-8.5,8.5-8.5
	h24C573.639,580.044,577.445,583.85,577.445,588.544L577.445,588.544z"/>
<path fill="#FFFFFF" d="M630.445,588.544c0,4.694-3.806,8.5-8.5,8.5h-24c-4.694,0-8.5-3.806-8.5-8.5l0,0c0-4.694,3.806-8.5,8.5-8.5
	h24C626.639,580.044,630.445,583.85,630.445,588.544L630.445,588.544z"/>
<polygon points="519.241,463.696 452.321,502.333 385.399,540.97 385.399,463.696 385.399,386.421 452.321,425.058 "/>
</svg>
