<?xml version="1.0" encoding="utf-8"?>
<!-- Generator: Adobe Illustrator 16.0.0, SVG Export Plug-In . SVG Version: 6.00 Build 0)  -->
<!DOCTYPE svg PUBLIC "-//W3C//DTD SVG 1.1//EN" "http://www.w3.org/Graphics/SVG/1.1/DTD/svg11.dtd">
<svg version="1.1" id="Calque_1" xmlns="http://www.w3.org/2000/svg" xmlns:xlink="http://www.w3.org/1999/xlink" x="0px" y="0px"
	 width="841.889px" height="885.088px" viewBox="0 0 841.889 885.088" enable-background="new 0 0 841.889 885.088"
	 xml:space="preserve">
<rect x="240.301" y="282.472" fill="none" stroke="#000000" stroke-width="15.7056" stroke-miterlimit="10" width="331.484" height="331.484"/>
<rect x="256.994" y="337.534" transform="matrix(-0.7071 -0.7071 0.7071 -0.7071 285.787 820.2518)" width="111.557" height="26.808"/>
<polygon points="350.353,389.531 368.12,371.763 374.623,396.034 381.128,420.304 356.857,413.801 332.587,407.297 "/>
<g>
	
		<rect x="258.667" y="533.808" transform="matrix(-0.7071 0.7071 -0.7071 -0.7071 923.7292 711.8021)" width="111.557" height="26.808"/>
	<polygon points="353.039,509.631 335.271,491.864 359.542,485.361 383.812,478.858 377.309,503.128 370.805,527.397 	"/>
</g>
<g>
	
		<rect x="446.254" y="534.819" transform="matrix(0.7071 0.7071 -0.7071 0.7071 534.699 -194.4194)" width="111.558" height="26.808"/>
	<polygon points="464.452,509.631 446.685,527.399 440.181,503.128 433.679,478.858 457.948,485.361 482.218,491.864 	"/>
</g>
<g>
	
		<rect x="447.131" y="335.632" transform="matrix(0.7071 -0.7071 0.7071 0.7071 -99.5072 457.8411)" width="111.557" height="26.808"/>
	<polygon points="464.316,386.616 482.083,404.384 457.814,410.887 433.542,417.391 440.046,393.119 446.55,368.85 	"/>
</g>
</svg>
